<?xml version="1.0" encoding="UTF-8" standalone="no"?>
<!-- Created with Inkscape (http://www.inkscape.org/) -->

<svg
   width="1024"
   height="768"
   viewBox="0 0 270.93333 203.2"
   version="1.1"
   id="svg1"
   xml:space="preserve"
   inkscape:version="1.4.2 (ebf0e940d0, 2025-05-08)"
   sodipodi:docname="ellypad.svg"
   inkscape:export-filename="logo520*520.png"
   inkscape:export-xdpi="96"
   inkscape:export-ydpi="96"
   xmlns:inkscape="http://www.inkscape.org/namespaces/inkscape"
   xmlns:sodipodi="http://sodipodi.sourceforge.net/DTD/sodipodi-0.dtd"
   xmlns:xlink="http://www.w3.org/1999/xlink"
   xmlns="http://www.w3.org/2000/svg"
   xmlns:svg="http://www.w3.org/2000/svg"><sodipodi:namedview
     id="namedview1"
     pagecolor="#ffffff"
     bordercolor="#000000"
     borderopacity="0.25"
     inkscape:showpageshadow="2"
     inkscape:pageopacity="0.0"
     inkscape:pagecheckerboard="0"
     inkscape:deskcolor="#d1d1d1"
     inkscape:document-units="mm"
     inkscape:zoom="0.45459367"
     inkscape:cx="552.14144"
     inkscape:cy="435.5538"
     inkscape:window-width="1354"
     inkscape:window-height="720"
     inkscape:window-x="0"
     inkscape:window-y="0"
     inkscape:window-maximized="1"
     inkscape:current-layer="layer1" /><defs
     id="defs1"><linearGradient
       id="linearGradient8"
       inkscape:collect="always"><stop
         style="stop-color:#0b6477;stop-opacity:1;"
         offset="0"
         id="stop8" /><stop
         style="stop-color:#80ed99;stop-opacity:1;"
         offset="1"
         id="stop9" /></linearGradient><linearGradient
       inkscape:collect="always"
       xlink:href="#linearGradient8"
       id="linearGradient9"
       x1="-2.15e-07"
       y1="6.3499999"
       x2="12.7"
       y2="6.3499999"
       gradientUnits="userSpaceOnUse"
       gradientTransform="matrix(18.735211,0,0,18.735211,16.498084,-17.368577)" /></defs><g
     inkscape:label="Layer 1"
     inkscape:groupmode="layer"
     id="layer1"><path
       id="path1"
       style="font-variation-settings:normal;opacity:1;vector-effect:none;fill:url(#linearGradient9);fill-opacity:1;stroke:#ff0062;stroke-width:0;stroke-linecap:butt;stroke-linejoin:miter;stroke-miterlimit:4;stroke-dasharray:none;stroke-dashoffset:0;stroke-opacity:1;-inkscape-stroke:none;stop-color:#000000;stop-opacity:1"
       d="m 156.37293,14.880895 56.1107,86.824795 -60.9489,86.61339 102.90053,-88.1386 z M 115.8949,16.704955 16.498072,100.18049 119.39862,188.3191 58.449694,101.70571 Z m 33.08418,20.08437 c -2.23158,0.01452 -4.58378,0.195595 -7.0589,0.561682 -10.89557,1.611229 -28.76191,6.983156 -43.662291,34.72781 -18.280706,34.039043 1.865291,63.303603 1.865291,63.303603 l -9.568205,4.67327 10.114335,12.30423 15.27202,-6.77039 c 0,0 7.33421,6.36122 18.90967,10.62446 8.57866,3.15952 27.09699,4.57533 27.09699,4.57533 0,0 4.52874,-7.85429 13.57681,-19.19814 -29.82417,-0.7689 -36.94855,-10.15554 -36.94855,-10.15554 0,0 14.99981,-8.97301 26.96303,-22.35669 11.88581,-13.297129 17.05453,-24.264387 16.03455,-43.317065 -0.73665,-13.760673 -11.02263,-29.1195 -32.5947,-28.97256 z m 2.85964,21.181935 c 1.76822,0.08055 3.51602,0.545945 5.17826,1.499379 6.90251,3.959238 12.17801,17.313131 -6.13662,37.932674 -8.37875,9.433197 -26.85482,20.764547 -26.85482,20.764547 0,0 -8.96264,-15.64077 -1.12844,-33.341756 5.46634,-12.351076 8.01381,-14.423958 13.94268,-19.971078 4.17265,-3.903931 9.69404,-7.126461 14.99894,-6.883766 z m -86.144604,90.30785 -3.498539,11.70651 16.178822,-0.53601 z m 70.068814,15.3595 a 12.282673,12.282673 0 0 0 -12.28355,12.2836 12.282673,12.282673 0 0 0 12.28355,12.28364 12.282673,12.282673 0 0 0 12.28355,-12.28364 12.282673,12.282673 0 0 0 -12.28355,-12.2836 z" /></g></svg>
