<?xml version="1.0" encoding="UTF-8" standalone="no"?>
<!-- Created with Inkscape (http://www.inkscape.org/) -->

<svg
   width="1024"
   height="768"
   viewBox="0 0 270.93333 203.2"
   version="1.1"
   id="svg1"
   inkscape:version="1.4.2 (ebf0e940d0, 2025-05-08)"
   sodipodi:docname="falcosend.svg"
   xml:space="preserve"
   xmlns:inkscape="http://www.inkscape.org/namespaces/inkscape"
   xmlns:sodipodi="http://sodipodi.sourceforge.net/DTD/sodipodi-0.dtd"
   xmlns:xlink="http://www.w3.org/1999/xlink"
   xmlns="http://www.w3.org/2000/svg"
   xmlns:svg="http://www.w3.org/2000/svg"><sodipodi:namedview
     id="namedview1"
     pagecolor="#ffffff"
     bordercolor="#000000"
     borderopacity="0.25"
     inkscape:showpageshadow="2"
     inkscape:pageopacity="0.0"
     inkscape:pagecheckerboard="0"
     inkscape:deskcolor="#d1d1d1"
     inkscape:document-units="mm"
     inkscape:zoom="0.45057766"
     inkscape:cx="516.00428"
     inkscape:cy="499.35898"
     inkscape:window-width="1354"
     inkscape:window-height="720"
     inkscape:window-x="0"
     inkscape:window-y="0"
     inkscape:window-maximized="1"
     inkscape:current-layer="layer1" /><defs
     id="defs1"><linearGradient
       id="linearGradient16"
       inkscape:collect="always"><stop
         style="stop-color:#99423e;stop-opacity:1"
         offset="0"
         id="stop16" /><stop
         style="stop-color:#db6450;stop-opacity:1"
         offset="1"
         id="stop17" /></linearGradient><linearGradient
       id="linearGradient14"
       inkscape:collect="always"><stop
         style="stop-color:#f47057;stop-opacity:1"
         offset="0"
         id="stop14" /><stop
         style="stop-color:#97423e;stop-opacity:1"
         offset="1"
         id="stop15" /></linearGradient><linearGradient
       inkscape:collect="always"
       xlink:href="#linearGradient14"
       id="linearGradient15"
       x1="96.106796"
       y1="130.06334"
       x2="94.777695"
       y2="181.77733"
       gradientUnits="userSpaceOnUse"
       gradientTransform="matrix(1.3115152,0,0,1.3115152,-43.184578,-77.332815)" /><linearGradient
       inkscape:collect="always"
       xlink:href="#linearGradient16"
       id="linearGradient17"
       x1="186.40593"
       y1="120.46097"
       x2="94.227081"
       y2="118.80914"
       gradientUnits="userSpaceOnUse"
       gradientTransform="matrix(1.3115152,0,0,1.3115152,-43.184578,-77.332815)" /></defs><g
     inkscape:label="falcon"
     inkscape:groupmode="layer"
     id="layer1"><path
       style="fill:url(#linearGradient15);stroke-width:0.694011;stroke-dasharray:none"
       d="M 25.534993,128.24597 C 38.486223,115.70104 48.827364,100.8425 65.561228,92.080213 l 26.849371,-14.180595 7.807271,-14.727926 23.5389,30.383551 -8.21698,31.189517 9.58189,3.50121 c -2.21948,11.11454 -5.97003,23.73819 -9.60972,32.92202 -3.6397,9.18383 -6.69578,17.99977 -11.79979,21.88918 L 73.406952,153.56759 54.404667,135.1746 c -7.30455,-5.43084 -15.480549,-9.68857 -28.869674,-6.92863 z"
       id="path13"
       sodipodi:nodetypes="ccccccczcccc" /><path
       style="fill:#f47057;fill-opacity:1;stroke-width:0"
       d="M 25.534993,128.24597 C 33.413041,101.38722 49.513305,62.199361 82.076411,39.809405 76.50873,38.524321 61.828021,35.267915 61.489535,21.832136 c 7.084423,1.682728 38.213731,-0.08809 57.124535,0.521419 15.11147,0.410325 29.00965,6.481423 36.65391,13.802731 7.64426,7.321307 9.01104,9.744791 9.32085,13.296866 -9.20431,0.0486 -16.83164,-1.294251 -24.19712,-2.86814 -9.95293,-1.990056 -19.91356,-1.634211 -29.65114,-1.470784 l 15.36903,2.993527 c -0.20108,6.004187 1.63789,10.427023 7.9942,11.513167 3.4795,0.24688 6.61498,-1.038668 8.89509,-6.134545 1.06765,4.134812 0.30655,8.243107 -6.13455,12.269091 3.00044,0.20049 6.48691,-1.05712 10.58209,-4.14082 l 9.50855,-8.588361 c 3.8682,0.05101 7.54308,0.971986 11.19555,1.993722 6.45886,1.642594 10.05367,5.483182 11.809,10.735459 1.81674,4.1644 2.2785,8.08246 1.68699,11.809 -0.16888,2.18179 -0.29977,4.37876 -1.53363,6.13455 -2.7114,-2.58929 -5.70798,-4.80782 -9.50855,-5.98118 -8.4074,-2.94312 -16.23788,-3.29007 -23.77136,-2.30046 -12.11128,2.32151 -19.22581,10.16575 -25.15163,19.323815 L 100.21787,64.049882 93.729905,78.493088 c 0,0 -29.815701,16.905645 -41.120496,25.374762 -11.304795,8.46913 -27.074416,24.37812 -27.074416,24.37812 z"
       id="path7"
       sodipodi:nodetypes="cccczcccccccccccccccccczc" /><path
       style="fill:url(#linearGradient17);fill-opacity:1;stroke-width:0"
       d="m 170.60434,77.717838 c -33.21574,-11.23361 -42.53695,4.99401 -48.92299,17.023355 -6.38604,12.029347 -7.20982,21.352177 -10.28326,31.604377 l 13.46926,2.91773 c 0,0 5.71241,-21.37334 9.61465,-26.77874 3.90224,-5.405397 12.83985,-23.291862 36.12234,-24.766722 z"
       id="path12"
       sodipodi:nodetypes="czcczc" /></g><g
     inkscape:groupmode="layer"
     id="layer2"
     inkscape:label="shield"><path
       style="fill:#f47057;fill-opacity:1;stroke-width:0"
       d="m 69.877796,114.30315 c 7.138431,-0.48789 13.877182,-4.57289 20.807282,-6.93575 6.512788,2.3204 12.853742,6.70264 19.572132,6.55571 4.09703,18.78146 -2.94253,32.43256 -19.477126,41.70957 C 70.26039,143.25331 68.136495,128.97747 69.877796,114.30315 Z"
       id="path8"
       sodipodi:nodetypes="ccccc" /><path
       style="fill:#97423e;fill-opacity:1;stroke-width:0"
       d="m 90.400047,111.54785 v 39.42931 c 10.637513,-4.99247 18.852753,-12.92629 16.626823,-33.53866 -5.60607,-0.81511 -11.092793,-3.77868 -16.626823,-5.89065 z"
       id="path9"
       sodipodi:nodetypes="cccc" /><path
       style="fill:#f47057;fill-opacity:1;stroke-width:0"
       d="m 90.400047,111.54785 v 39.42931 C 79.762531,145.98469 71.547292,138.05087 73.773221,117.4385 c 5.606072,-0.81511 11.092796,-3.77868 16.626826,-5.89065 z"
       id="path11"
       sodipodi:nodetypes="cccc" /></g><g
     inkscape:groupmode="layer"
     id="layer3"
     inkscape:label="kite"><path
       style="fill:#f47057;fill-opacity:1;stroke-width:0.694011;stroke-dasharray:none"
       d="m 169.16946,41.933119 81.37219,-20.100983 1.17843,3.359349 -70.78213,129.109395 c -2.94611,3.37636 -6.1111,2.37601 -9.05719,-1.24864 l -34.46937,-32.4071 36.48222,-32.627422 c 1.43186,2.491115 3.37462,4.641615 5.97346,6.354745 6.20816,-6.442915 9.60908,-13.972515 9.78631,-22.749995 -0.93744,-12.934453 -8.40225,-19.602596 -19.04084,-23.223924 -0.008,-2.358186 -0.67857,-4.431775 -1.44308,-6.465425 z"
       id="path17"
       sodipodi:nodetypes="ccccccccccc" /><path
       style="fill:#97423e;fill-opacity:1;stroke-width:0.694011;stroke-dasharray:none"
       d="m 186.89123,61.563289 c 6.25508,-6.179256 31.69817,-18.016318 47.4212,-26.923628 -14.82742,12.477054 -30.38042,27.643571 -44.76698,37.475427 0.0235,-3.45572 -0.6242,-6.83625 -2.65422,-10.551799 z"
       id="path18"
       sodipodi:nodetypes="cccc" /></g></svg>
