<?xml version="1.0" encoding="UTF-8" standalone="no"?>
<!-- Created with Inkscape (http://www.inkscape.org/) -->

<svg
   width="520"
   height="520"
   viewBox="0 0 137.58333 137.58333"
   version="1.1"
   id="svg1"
   sodipodi:docname="my study net.svg"
   inkscape:version="1.4 (1:1.4+202410161351+e7c3feb100)"
   xmlns:inkscape="http://www.inkscape.org/namespaces/inkscape"
   xmlns:sodipodi="http://sodipodi.sourceforge.net/DTD/sodipodi-0.dtd"
   xmlns:xlink="http://www.w3.org/1999/xlink"
   xmlns="http://www.w3.org/2000/svg"
   xmlns:svg="http://www.w3.org/2000/svg">
  <sodipodi:namedview
     id="namedview1"
     pagecolor="#ffffff"
     bordercolor="#000000"
     borderopacity="0.25"
     inkscape:showpageshadow="2"
     inkscape:pageopacity="0.0"
     inkscape:pagecheckerboard="0"
     inkscape:deskcolor="#d1d1d1"
     inkscape:document-units="mm"
     inkscape:zoom="0.90692276"
     inkscape:cx="159.33"
     inkscape:cy="288.88899"
     inkscape:window-width="1366"
     inkscape:window-height="758"
     inkscape:window-x="0"
     inkscape:window-y="32"
     inkscape:window-maximized="0"
     inkscape:current-layer="layer1" />
  <defs
     id="defs1">
    <linearGradient
       id="linearGradient1"
       inkscape:collect="always">
      <stop
         style="stop-color:#6b4aff;stop-opacity:1;"
         offset="0"
         id="stop1" />
      <stop
         style="stop-color:#cf00ff;stop-opacity:1;"
         offset="1"
         id="stop2" />
    </linearGradient>
    <linearGradient
       inkscape:collect="always"
       xlink:href="#linearGradient1"
       id="linearGradient2"
       x1="12.479474"
       y1="-0.37605903"
       x2="12.659775"
       y2="25.477688"
       gradientUnits="userSpaceOnUse" />
  </defs>
  <g
     inkscape:label="Layer 1"
     inkscape:groupmode="layer"
     id="layer1">
    <path
       id="rect11"
       style="fill:url(#linearGradient2);fill-opacity:1;stroke:#ff0062;stroke-width:0"
       d="m 36.35877,-0.31089527 a 5.9388692,5.9176437 0 0 0 -2.268882,0.48436048 5.9388692,5.9176437 0 0 0 -3.101656,7.77538299 5.9388692,5.9176437 0 0 0 6.041865,3.5350388 l 15.848181,36.591018 a 7.7475681,7.7198794 0 0 0 -1.062281,1.130199 7.7475681,7.7198794 0 0 0 -0.467351,0.722225 L 11.757964,45.321652 A 5.9388692,5.9176437 0 0 0 6.6253592,40.571449 5.9388692,5.9176437 0 0 0 0.03965198,45.77204 5.9388692,5.9176437 0 0 0 5.2487379,52.332254 5.9388692,5.9176437 0 0 0 11.214111,49.128628 l 39.089349,4.546259 a 7.7475681,7.7198794 0 0 0 3.101666,6.330769 7.7475681,7.7198794 0 0 0 9.15202,0.0673 l 16.417518,12.177199 c 0.14638,1.370108 0.246538,2.78534 0.246538,4.299816 0,3.556227 -0.599014,6.757391 -1.784501,9.602392 -1.185454,2.844964 -2.786015,5.275831 -4.801196,7.291012 -1.89666,1.896666 -4.087856,3.377428 -6.577207,4.444299 -2.370799,1.066888 -4.801667,1.606087 -7.291012,1.606087 -2.726455,0 -5.396919,-0.539247 -8.004827,-1.606087 -2.608014,-1.185328 -4.918961,-2.897203 -6.934163,-5.149477 -2.01518,-2.37081 -3.675698,-5.340865 -4.979642,-8.897088 -1.18545,-3.674763 -1.776022,-8.057161 -1.776022,-13.154415 L 8.9792857,104.1166 c 0.711237,5.2158 2.3118403,9.95768 4.8011963,14.22513 2.489351,4.14891 5.570716,7.64118 9.24548,10.48615 3.674763,2.96352 7.826027,5.22313 12.449115,6.76414 4.623073,1.54098 9.36494,2.30288 14.225122,2.30288 6.045584,0 12.0885,-1.0613 18.134062,-3.19513 6.045579,-2.13371 11.437992,-5.27503 16.179606,-9.42394 4.86015,-4.14892 8.771774,-9.31016 11.735301,-15.47428 3.082051,-6.28264 4.622742,-13.455366 4.622742,-21.51614 0,-0.05747 -0.008,-0.111833 -0.008,-0.170047 l 16.97838,12.593577 -11.45488,4.97963 31.69638,7.51196 L 120.91087,83.297178 120.34996,95.814249 99.70908,80.509932 C 99.264392,77.99178 98.592542,75.547215 97.703477,73.176411 95.925363,68.434797 93.693691,63.886589 92.018525,59.129745 91.051119,56.382572 90.446638,55.536608 88.814883,51.48182 c -1.249421,-3.104576 -2.365342,-6.163427 -3.195131,-9.245485 -0.71121,-3.082051 -1.062281,-6.283247 -1.062281,-9.602392 0,-4.148908 0.522237,-7.820892 1.589156,-11.021491 1.185455,-3.319129 2.606292,-6.041041 4.265843,-8.174768 1.778124,-2.252273 3.738171,-3.912781 5.871903,-4.9796471 2.133738,-1.1853969 4.213627,-1.784511 6.228797,-1.784511 2.84498,0 5.26733,1.0698983 7.28252,3.2036254 2.13374,2.0151907 3.20364,5.2677967 3.20364,9.7723437 0,2.844964 -0.53066,5.874925 -1.59754,9.075523 -0.94832,3.200583 -2.49753,6.273464 -4.63124,9.236991 -2.01519,2.844964 -4.55736,5.515455 -7.639422,8.004821 0.955062,0.858542 1.378172,1.387382 1.529622,1.776006 0.18632,0.195826 0.37855,0.377547 0.58641,0.552332 0.34284,0.274959 0.69246,0.542522 1.03663,0.81579 0.45187,0.374588 0.92169,0.722056 1.39363,1.070664 0.0872,0.06445 0.17528,0.133174 0.26339,0.195298 0.5261,0.06873 1.05259,0.124933 1.59754,0.212413 4.03036,-3.31913 7.40283,-6.81138 10.12925,-10.486143 2.84497,-3.793295 4.97625,-7.585105 6.39874,-11.378399 1.42242,-3.911836 2.14143,-7.583821 2.14143,-11.021491 0,-6.164114 -1.84025,-10.6149378 -5.515,-13.3413712 -3.67462,-2.8449853 -8.12559,-4.26583766 -13.34137,-4.26583766 -3.91186,0 -7.8834,0.77034923 -11.913766,2.31136996 -4.030398,1.5410365 -7.753767,3.7322328 -11.191437,6.5772075 -3.31913,2.8449744 -6.058051,6.3457244 -8.191773,10.4946534 -2.133753,4.030361 -3.203625,8.592531 -3.203625,13.689763 0,3.911841 0.299575,7.463996 0.89225,10.664594 0.711216,3.200599 1.549843,6.341879 2.498326,9.423926 l 3.19512,10.494642 c 0.028,0.0954 0.04068,0.19403 0.0673,0.288905 L 65.632769,55.237677 a 7.7475681,7.7198794 0 0 0 -2.974181,-7.62241 7.7475681,7.7198794 0 0 0 -6.364779,-1.325718 L 40.531127,9.8778327 A 5.9388692,5.9176437 0 0 0 41.899269,3.258132 5.9388692,5.9176437 0 0 0 36.35877,-0.31089527 Z" />
  </g>
</svg>
