<?xml version="1.0" encoding="UTF-8" standalone="no"?>
<svg
   aria-hidden="true"
   role="img"
   class="iconify iconify--logos"
   width="32"
   height="32"
   preserveAspectRatio="xMidYMid"
   viewBox="0 0 256.96362 257"
   version="1.1"
   id="svg6"
   sodipodi:docname="logo.svg"
   inkscape:version="1.3.2 (1:1.3.2+202404261509+091e20ef0f)"
   xmlns:inkscape="http://www.inkscape.org/namespaces/inkscape"
   xmlns:sodipodi="http://sodipodi.sourceforge.net/DTD/sodipodi-0.dtd"
   xmlns="http://www.w3.org/2000/svg"
   xmlns:svg="http://www.w3.org/2000/svg">
  <sodipodi:namedview
     id="namedview6"
     pagecolor="#ffffff"
     bordercolor="#000000"
     borderopacity="0.25"
     inkscape:showpageshadow="2"
     inkscape:pageopacity="0.0"
     inkscape:pagecheckerboard="0"
     inkscape:deskcolor="#d1d1d1"
     inkscape:zoom="8.5977163"
     inkscape:cx="29.019334"
     inkscape:cy="12.212545"
     inkscape:window-width="1366"
     inkscape:window-height="699"
     inkscape:window-x="0"
     inkscape:window-y="32"
     inkscape:window-maximized="1"
     inkscape:current-layer="svg6"
     showguides="true" />
  <defs
     id="defs5">
    <linearGradient
       id="IconifyId1813088fe1fbc01fb466"
       x1="-2.0007203"
       x2="139.28905"
       y1="48.343502"
       y2="219.34656"
       gradientTransform="matrix(1.0592958,0,0,0.94402338,-300.66211,-23.518017)"
       gradientUnits="userSpaceOnUse">
      <stop
         offset="0%"
         stop-color="#41D1FF"
         id="stop1" />
      <stop
         offset="100%"
         stop-color="#BD34FE"
         id="stop2" />
    </linearGradient>
    <linearGradient
       id="IconifyId1813088fe1fbc01fb467"
       x1="188.00648"
       x2="199.00609"
       y1="3.5533929"
       y2="141.10861"
       gradientTransform="matrix(0.74063538,0,0,1.3501921,271.20051,-10.74732)"
       gradientUnits="userSpaceOnUse">
      <stop
         offset="0%"
         stop-color="#FFEA83"
         id="stop3" />
      <stop
         offset="8.333%"
         stop-color="#FFDD35"
         id="stop4" />
      <stop
         offset="100%"
         stop-color="#FFA800"
         id="stop5" />
    </linearGradient>
  </defs>
  <g
     id="g1">
    <path
       id="rect11"
       style="fill:#6b4aff;fill-opacity:1;stroke:#ff0062;stroke-width:0"
       d="m 255.88481,211.18783 -30.78297,-55.19596 -1.02979,23.1113 -101.0044,-74.90716 A 14.301377,14.250265 0 0 0 117.57277,90.13458 14.301377,14.250265 0 0 0 105.83715,87.684738 L 76.731065,20.473885 A 10.962666,10.923486 0 0 0 79.260601,8.2510613 10.962666,10.923486 0 0 0 64.848727,2.5560342 10.962666,10.923486 0 0 0 59.122836,16.908667 10.962666,10.923486 0 0 0 70.272432,23.432281 l 29.247786,67.54218 a 14.301377,14.250265 0 0 0 -1.952842,2.082497 14.301377,14.250265 0 0 0 -0.862781,1.339617 L 23.614244,85.897034 a 10.962666,10.923486 0 0 0 -9.475742,-8.764522 10.962666,10.923486 0 0 0 -12.1544381,9.58507 10.962666,10.923486 0 0 0 9.6116891,12.121395 10.962666,10.923486 0 0 0 11.024402,-5.922835 l 72.154591,8.395378 a 14.301377,14.250265 0 0 0 5.721604,11.68452 14.301377,14.250265 0 0 0 16.88919,0.13138 l 101.13485,75.00392 -21.15051,9.19928 z" />
    <path
       id="text7"
       style="font-size:306.41px;font-family:'Ecentric DEMO';-inkscape-font-specification:'Ecentric DEMO, Normal';fill:#ffd028;stroke:#ff0062;stroke-width:0"
       d="m 196.3893,2.417178 c -7.22097,0 -14.5552,1.4233145 -21.99494,4.2679264 -7.43979,2.8446162 -14.32182,6.8800706 -20.66753,12.1316656 -6.12684,5.251594 -11.16709,11.71512 -15.10576,19.373696 -3.93872,7.439759 -5.91462,15.862395 -5.91462,25.271501 0,7.220942 0.55264,13.784908 1.64668,19.692951 1.31291,5.908047 2.85345,11.701729 4.60399,17.390962 l 5.89781,19.3737 c 1.09409,3.71985 1.86434,7.53764 2.30198,11.47635 0.65645,3.71986 0.99138,7.77216 0.99138,12.14846 0,6.56452 -1.10523,12.47541 -3.29336,17.72702 -2.18817,5.25158 -5.13525,9.73924 -8.85511,13.45909 -3.50107,3.50107 -7.55331,6.23045 -12.14847,8.1998 -4.37631,1.96936 -8.86397,2.9573 -13.45909,2.9573 -5.0328,0 -9.95574,-0.98794 -14.769715,-2.9573 -4.813959,-2.18817 -9.083897,-5.3529 -12.803779,-9.51042 -3.719877,-4.37631 -6.784181,-9.85191 -9.191164,-16.41639 -2.188164,-6.78333 -3.276557,-14.871 -3.276557,-24.28014 L 18.49742,194.42346 c 1.312896,9.62792 4.259965,18.38548 8.855107,26.26287 4.595147,7.65856 10.288395,14.10531 17.071705,19.35689 6.783311,5.47043 14.435668,9.63991 22.969509,12.48453 8.533842,2.84458 17.291394,4.25111 26.26287,4.25111 11.159639,0 22.311659,-1.95909 33.471299,-5.8978 11.15964,-3.93867 21.12284,-9.73239 29.87548,-17.39095 8.97147,-7.65861 16.18846,-17.18641 21.65889,-28.56487 5.68921,-11.59727 8.53585,-24.84242 8.53585,-39.72196 0,-9.84674 -1.64102,-19.1401 -4.92323,-27.89275 -3.28226,-8.75264 -7.40955,-17.14603 -10.5018,-25.92681 -1.78583,-5.07105 -2.90247,-6.62959 -5.9146,-14.114399 -2.30626,-5.730804 -4.36609,-11.382477 -5.89781,-17.071706 -1.3129,-5.689229 -1.96592,-11.600158 -1.96592,-17.727016 0,-7.658577 0.97113,-14.440218 2.94049,-20.348264 2.18817,-6.126859 4.81714,-11.150273 7.88054,-15.088967 3.28226,-4.157512 6.89917,-7.221817 10.83784,-9.191164 3.93871,-2.188164 7.7733,-3.293361 11.49316,-3.293361 5.25161,0 9.72239,1.975912 13.44229,5.914606 3.93871,3.719882 5.91461,9.731248 5.91461,18.046272 0,5.251594 -0.98795,10.844405 -2.95731,16.752451 -1.75054,5.908042 -4.59718,11.584491 -8.53585,17.054903 -3.71989,5.251595 -8.42519,10.174567 -14.1144,14.769713 1.76305,1.584813 2.54338,2.55926 2.82288,3.276557 0.34386,0.361499 0.70853,0.702326 1.09218,1.024975 0.63274,0.507386 1.28046,0.991134 1.91553,1.495455 0.83404,0.691638 1.69962,1.339038 2.57084,1.982737 0.1614,0.117033 0.32438,0.237754 0.48728,0.35286 0.97101,0.127982 1.93449,0.240624 2.94051,0.403268 7.43974,-6.126859 13.66881,-12.573583 18.70157,-19.356894 5.25162,-7.002128 9.18661,-14.00145 11.81242,-21.003574 2.62576,-7.220942 3.94866,-14.002587 3.94866,-20.348264 0,-11.378453 -3.39923,-19.600214 -10.18252,-24.632991 C 214.22215,5.0293227 206.01722,2.417178 196.3893,2.417178 Z"
       sodipodi:nodetypes="ssccsccccscscscccccccsssccsssscscccscscccccccccccscs" />
  </g>
</svg>
