<?xml version="1.0" encoding="UTF-8" standalone="no"?>
<!-- Created with Inkscape (http://www.inkscape.org/) -->

<svg
   width="1024"
   height="1024"
   viewBox="0 0 1024 1024"
   version="1.1"
   id="svg1"
   xml:space="preserve"
   inkscape:version="1.4.2 (ebf0e940d0, 2025-05-08)"
   sodipodi:docname="programming-developer.svg"
   xmlns:inkscape="http://www.inkscape.org/namespaces/inkscape"
   xmlns:sodipodi="http://sodipodi.sourceforge.net/DTD/sodipodi-0.dtd"
   xmlns:xlink="http://www.w3.org/1999/xlink"
   xmlns="http://www.w3.org/2000/svg"
   xmlns:svg="http://www.w3.org/2000/svg"><sodipodi:namedview
     id="namedview1"
     pagecolor="#ffffff"
     bordercolor="#000000"
     borderopacity="0.25"
     inkscape:showpageshadow="2"
     inkscape:pageopacity="0.0"
     inkscape:pagecheckerboard="0"
     inkscape:deskcolor="#d1d1d1"
     inkscape:document-units="px"
     inkscape:zoom="0.31763227"
     inkscape:cx="390.38854"
     inkscape:cy="695.77313"
     inkscape:window-width="1354"
     inkscape:window-height="720"
     inkscape:window-x="0"
     inkscape:window-y="0"
     inkscape:window-maximized="1"
     inkscape:current-layer="layer1" /><defs
     id="defs1"><linearGradient
       id="linearGradient13"
       inkscape:collect="always"><stop
         style="stop-color:#f5836d;stop-opacity:1"
         offset="0"
         id="stop15" /><stop
         style="stop-color:#f47057;stop-opacity:0.17647059;"
         offset="1"
         id="stop16" /></linearGradient><linearGradient
       id="linearGradient10"
       inkscape:collect="always"><stop
         style="stop-color:#017e6a;stop-opacity:1"
         offset="0"
         id="stop13" /><stop
         style="stop-color:#00b89a;stop-opacity:1"
         offset="1"
         id="stop14" /></linearGradient><linearGradient
       id="linearGradient11"
       inkscape:collect="always"><stop
         style="stop-color:#037c68;stop-opacity:1"
         offset="0"
         id="stop11" /><stop
         style="stop-color:#00b89a;stop-opacity:1"
         offset="1"
         id="stop12" /></linearGradient><linearGradient
       id="linearGradient9"
       inkscape:collect="always"><stop
         style="stop-color:#f9afa8;stop-opacity:1;"
         offset="0"
         id="stop9" /><stop
         style="stop-color:#f9afa8;stop-opacity:0;"
         offset="1"
         id="stop10" /></linearGradient><linearGradient
       id="linearGradient7"
       inkscape:collect="always"><stop
         style="stop-color:#db4a47;stop-opacity:1;"
         offset="0"
         id="stop7" /><stop
         style="stop-color:#ffbb92;stop-opacity:1"
         offset="1"
         id="stop8" /></linearGradient><linearGradient
       inkscape:collect="always"
       xlink:href="#linearGradient7"
       id="linearGradient8"
       x1="555.70701"
       y1="507.76696"
       x2="607.88063"
       y2="507.76696"
       gradientUnits="userSpaceOnUse"
       gradientTransform="translate(317.83143)" /><radialGradient
       inkscape:collect="always"
       xlink:href="#linearGradient9"
       id="radialGradient10"
       cx="588.41976"
       cy="530.0612"
       fx="588.41976"
       fy="530.0612"
       r="23.174783"
       gradientTransform="matrix(1,0,0,0.35399189,317.83143,342.42383)"
       gradientUnits="userSpaceOnUse" /><linearGradient
       inkscape:collect="always"
       xlink:href="#linearGradient11"
       id="linearGradient12"
       x1="328.00848"
       y1="662.83563"
       x2="328.49844"
       y2="549.45496"
       gradientUnits="userSpaceOnUse"
       gradientTransform="translate(522.00274)" /><linearGradient
       inkscape:collect="always"
       xlink:href="#linearGradient10"
       id="linearGradient14"
       x1="536.16724"
       y1="659.10815"
       x2="512.2525"
       y2="596.72205"
       gradientUnits="userSpaceOnUse"
       gradientTransform="translate(453.45549)" /><linearGradient
       inkscape:collect="always"
       xlink:href="#linearGradient13"
       id="linearGradient16"
       x1="-25.182993"
       y1="659.80865"
       x2="1191.3091"
       y2="244.23373"
       gradientUnits="userSpaceOnUse" /></defs><g
     inkscape:label="Layer 1"
     inkscape:groupmode="layer"
     id="layer1"><path
       style="fill:url(#linearGradient16);fill-opacity:1;stroke-width:2"
       d="m 59.082177,853.40923 c 0,0 -105.034982,-207.88174 54.705723,-326.04609 159.7407,-118.16436 282.56728,-108.99407 412.1913,-197.38988 84.19111,-57.41329 194.71987,-149.40671 353.91342,-45.43465 222.32188,145.2023 6.34004,571.05885 6.34004,571.05885 z"
       id="path12"
       sodipodi:nodetypes="cssscc" /><g
       id="g16"
       transform="matrix(2.1129063,0,0,2.1129063,-1641.6813,-575.52971)"><g
         id="g2"><path
           style="fill:#dc7d6f;fill-opacity:1;stroke-width:2"
           d="m 868.07851,441.07947 c 0,0 -18.32509,-40.13309 -18.32509,-10.58 0,29.5531 12.00072,31.36006 12.00072,31.36006 h 3.07184 c 1.0758,7.81964 0.0315,17.5474 5.60158,21.32216 7.42487,3.95899 14.86364,7.90408 22.76772,11.38386 7.88725,1.25005 16.13115,1.90568 25.47817,0.72278 l 7.22785,-3.25253 -44.63197,-15.17848 -3.25253,-55.65444 10.84177,-7.76993 21.86425,6.14367 17.88892,-13.73292 13.12478,-9.85532 -14.20896,1.5433 -23.30981,7.04715 -25.29747,-4.5174 -10.11899,11.92595 z"
           id="path2"
           sodipodi:nodetypes="csccccccccccccccccc" /><path
           style="fill:#ffbb90;fill-opacity:1;stroke-width:2"
           d="m 876.16507,419.41597 c 2.78247,-4.90726 7.09645,-7.6704 11.26714,-10.63415 4.2097,-2.99146 13.33612,6.73428 19.23439,5.15384 5.89826,-1.58043 10.97699,-1.87794 17.73194,-8.19217 6.75495,-6.31423 9.42525,-8.81117 16.86129,-4.51797 7.43605,4.29321 8.31329,12.25901 8.31329,12.25901 l -2.57051,6.97709 2.01968,6.60988 c 0,0 7.67977,-35.19851 13.49517,-13.49517 5.81539,21.70334 -1.85697,35.22192 -3.94757,36.99695 -2.09059,1.77503 -4.22298,-1.65247 -4.22298,-1.65247 -1.90414,35.10251 -7.88993,35.51103 -13.58696,38.37401 l -21.55834,7.68373 c -14.46601,-3.97275 -25.42204,-7.75331 -38.48138,-15.94607 -3.64986,-1.41901 -6.19376,-9.4738 -6.42627,-31.39692 0.45136,-9.69377 0.0969,-20.73063 1.87111,-28.21959 z"
           id="path3"
           sodipodi:nodetypes="csszscccszcccccc" /><path
           style="fill:#000000;fill-opacity:1;stroke-width:2"
           d="m 867.27263,443.01256 c -1.45887,-7.44021 -6.57174,-18.91905 -17.14492,-36.43296 0,0 9.44428,-19.12009 7.28374,-27.18332 -2.16053,-8.06322 19.96444,-16.29131 19.96444,-16.29131 0,0 -11.41248,16.99842 0,10.40942 11.41248,-6.589 12.71402,-16.70921 28.36948,-19.81503 19.66125,-3.90052 30.71927,3.58858 30.71927,3.58858 -21.98821,5.2305 -19.39155,12.06436 -20.20652,18.67572 0,0 18.20524,-15.17525 26.32636,-7.05413 8.12113,8.12113 10.1066,18.99435 10.1066,18.99435 0,0 -14.39037,-8.88741 -8.01872,2.14861 6.37164,11.03601 11.38648,9.7916 11.38648,9.7916 -3.56699,7.99379 -6.83892,17.18839 -6.85386,27.44302 l -2.63708,-5.09339 c 0.10205,-4.59239 0.20411,-9.18478 0.30616,-13.77717 -5.59354,-7.25676 -16.58357,-11.8304 -20.45874,-8.89684 -7.17423,9.89624 -16.45621,16.21251 -37.83871,4.32274 -9.0443,-0.96446 -14.18562,4.57605 -18.66131,11.22594 0.27889,10.57115 2.45931,23.20229 -2.64267,27.94417 z"
           id="path1"
           sodipodi:nodetypes="ccscssccscscccccccc" /><path
           style="fill:url(#linearGradient8);fill-opacity:1;stroke-width:2"
           d="m 881.32555,486.04532 c 23.4013,11.91137 31.89229,7.98774 41.79081,5.58076 -0.64684,13.53525 0.27539,22.8116 2.5957,28.29316 -9.92542,6.68053 -14.70368,18.20544 -52.17362,-1.03828 4.5294,-6.69107 7.49021,-16.83307 7.78711,-32.83564 z"
           id="path4"
           sodipodi:nodetypes="ccccc" /><path
           style="fill:#c1323f;fill-opacity:1;stroke-width:2"
           d="m 873.03456,519.00112 c -2.92865,-1.21347 -3.26818,8.9311 -3.26818,8.9311 24.12434,16.74209 44.43457,13.13505 61.76927,-2.39061 0,0 -2.13348,-8.53907 -4.64201,-7.18406 -16.97134,9.16725 -24.23364,12.91873 -53.85908,0.64357 z"
           id="path5"
           sodipodi:nodetypes="sccss" /><path
           style="fill:url(#radialGradient10);fill-opacity:1;stroke-width:2"
           d="m 890.23504,524.62225 c 0,0 -13.30816,-3.37976 -3.63405,6.29436 9.67412,9.67412 20.26842,7.01313 20.26842,7.01313 0,0 6.725,-0.88978 14.4591,-5.63009 7.7341,-4.74031 12.25443,-12.46396 2.66658,-9.95183 -11.78042,3.08661 -9.93984,7.46592 -19.26158,6.04763 -5.81929,-0.8854 -14.49847,-3.7732 -14.49847,-3.7732 z"
           id="path6"
           sodipodi:nodetypes="csczssc" /><path
           style="fill:#00b89a;fill-opacity:1;stroke-width:2"
           d="m 831.11142,565.30527 c 4.80377,-14.12602 17.67241,-23.54754 31.27528,-32.54076 30.83943,14.97181 55.38588,10.16564 75.79652,-7.63876 20.02274,2.09401 26.09655,26.37951 29.91931,54.24621 l 12.58288,90.8764 -99.82422,-8.10897 z"
           id="path10"
           sodipodi:nodetypes="ccccccc" /><path
           style="fill:url(#linearGradient12);stroke-width:2"
           d="m 827.88801,661.91413 -2.79561,-66.87956 c 1.29364,-11.46916 2.73148,-22.93833 7.95673,-34.40749 20.46654,-19.98457 28.99227,-10.11711 36.98805,1.07523 0,0 10.28986,15.30112 10.28986,38.40226 0,23.10113 1.32267,46.54124 1.32267,46.54124 0,0 -29.89151,-7.52664 -38.92347,-2.79561 -9.03197,4.73103 -14.83823,18.06393 -14.83823,18.06393 z"
           id="path11"
           sodipodi:nodetypes="ccccscsc" /><path
           style="fill:#fcbe97;fill-opacity:1;stroke-width:2"
           d="m 832.71757,653.38516 c 0,0 7.39613,-17.38089 45.11635,-8.13574 37.72022,9.24516 66.93491,18.1205 66.93491,18.1205 h 12.5734 c 0,0 12.2036,-9.61496 19.22992,-2.58864 7.02632,7.02632 11.8338,11.09418 11.8338,11.09418 l -12.94322,4.43768 c 0,0 -4.06786,-5.17729 -12.2036,-1.47923 -8.13573,3.69806 -126.84349,-4.43767 -126.84349,-4.43767 z"
           id="path7" /><path
           style="fill:#de7b6e;fill-opacity:1;stroke-width:2"
           d="m 836.70974,648.30358 c 0,0 -10.79573,10.14314 -7.69023,18.7644 2.74862,7.63053 7.02632,8.87534 7.02632,8.87534 l 124.25485,0.36981 1.10942,-1.10942 -17.01108,-3.32825 -61.38782,-5.17729 c 0,0 -34.83747,-4.71177 -46.30146,-18.39459 z"
           id="path8"
           sodipodi:nodetypes="cscccccc" /><path
           style="fill:#febd96;fill-opacity:1;stroke-width:2"
           d="m 979.54388,655.57067 21.89952,-4.60499 8.071,10.7711 5.4611,-0.069 c 0,0 9.2369,-4.24369 15.168,1.50205 5.9311,5.74575 7.0431,7.22852 7.0431,7.22852 l -10.5647,1.85346 -26.1339,-0.18534 z"
           id="path15"
           sodipodi:nodetypes="ccccscccc" /><path
           style="fill:#d77d6c;fill-opacity:1;stroke-width:2"
           d="m 978.10903,655.50259 10.33148,-1.78539 12.41819,17.97861 -9.45264,0.55604 z"
           id="path14"
           sodipodi:nodetypes="ccccc" /><path
           style="fill:url(#linearGradient14);stroke-width:2"
           d="m 976.1763,657.27691 c 0,0 23.54253,-7.0819 26.9878,-4.40226 3.4452,2.67964 -5.3593,-13.01538 -5.3593,-13.01538 -11.2102,-55.46553 -13.94871,-63.48961 -17.59885,-76.61884 -4.67321,-12.99203 -12.59103,-21.92829 -23.54192,-27.07321 6.49915,40.37188 0.0773,87.25496 19.51227,121.10969 z"
           id="path9"
           sodipodi:nodetypes="cscccc" /></g><path
         style="fill:#ae7c6c;fill-opacity:1;stroke-width:2"
         d="m 969.198,671.86535 100.3651,-1.86629 -0.4148,5.59888 -100.15766,1.24419 z"
         id="path16" /><g
         id="g1"
         transform="translate(452.441,-257.78489)"><path
           style="fill:#f8fdf7;fill-opacity:1;stroke-width:2"
           d="m 505.88288,729.93814 -5.22298,-4.84991 255.55292,-3.7307 4.84991,4.84991 z"
           id="path18" /><path
           style="fill:#854d3e;fill-opacity:1;stroke-width:2"
           d="m 506.25595,729.93814 -16.78815,152.21255 -6.34219,-5.22298 17.90736,-151.83948 z"
           id="path19" /><path
           style="fill:#000318;fill-opacity:1;stroke-width:2"
           d="m 616.31159,878.41999 v 53.349 l -12.15591,1.25689 0.289,1.44501 h 40.74908 l -0.289,-1.30051 -11.27102,-0.4335 v -53.8986 z"
           id="path21" /><path
           style="fill:#ad7c6a;fill-opacity:1;stroke-width:2"
           d="m 506.25595,729.56507 254.80678,-3.35763 -18.28043,154.0779 -253.3145,0.74614 z"
           id="path20" /><ellipse
           style="fill:#fefefe;fill-opacity:1;stroke-width:1.30079"
           id="path22"
           ry="10.87406"
           rx="17.338154"
           cy="807.18982"
           cx="633.20483" /></g></g><rect
       style="fill:#483e37;fill-opacity:1;stroke-width:2"
       id="rect1"
       width="955.552"
       height="20.093382"
       x="26.791178"
       y="854.28064"
       ry="6.3810992" /></g></svg>
