<?xml version="1.0" encoding="UTF-8" standalone="no"?>
<svg
   viewBox="0 0 640 512"
   version="1.1"
   id="svg1"
   sodipodi:docname="api.svg"
   inkscape:version="1.4 (e7c3feb100, 2024-10-09)"
   xmlns:inkscape="http://www.inkscape.org/namespaces/inkscape"
   xmlns:sodipodi="http://sodipodi.sourceforge.net/DTD/sodipodi-0.dtd"
   xmlns="http://www.w3.org/2000/svg"
   xmlns:svg="http://www.w3.org/2000/svg">
  <defs
     id="defs1" />
  <sodipodi:namedview
     id="namedview1"
     pagecolor="#ffffff"
     bordercolor="#000000"
     borderopacity="0.25"
     inkscape:showpageshadow="2"
     inkscape:pageopacity="0.0"
     inkscape:pagecheckerboard="0"
     inkscape:deskcolor="#d1d1d1"
     inkscape:zoom="0.32697291"
     inkscape:cx="412.87824"
     inkscape:cy="345.59438"
     inkscape:window-width="1366"
     inkscape:window-height="758"
     inkscape:window-x="0"
     inkscape:window-y="32"
     inkscape:window-maximized="0"
     inkscape:current-layer="svg1" />
  <!--!Font Awesome Free 6.7.1 by @fontawesome - https://fontawesome.com License - https://fontawesome.com/license/free Copyright 2024 Fonticons, Inc.-->
  <path
     id="path1"
     d="M 256 32 C 167.6 32 96 103.6 96 192 C 96 194.7 96.099219 197.39961 96.199219 200.09961 C 40.199219 219.79961 9.4739031e-15 273.2 0 336 C 0 415.5 64.5 480 144 480 L 512 480 C 582.7 480 640 422.7 640 352 C 640 290.1 595.99961 238.39961 537.59961 226.59961 C 541.69961 215.89961 544 204.2 544 192 C 544 139 501 96 448 96 C 428.3 96 409.89922 101.99922 394.69922 112.19922 C 366.99922 64.199219 315.3 32 256 32 z M 302.80664 157.17383 C 310.50704 157.17383 318.04635 157.81175 325.375 159.0332 C 330.26077 159.82979 333.9789 163.65366 335.04102 168.48633 L 341.67969 198.80859 C 350.07047 202.26049 357.93064 206.8289 365.04688 212.29883 L 394.62695 202.89844 C 399.30029 201.41147 404.50346 202.73923 407.63672 206.50977 C 411.93832 211.71418 415.86804 217.23645 419.37305 223.07812 L 421.86914 227.38086 C 425.10862 233.22254 427.9231 239.27607 430.25977 245.5957 L 430.20703 245.64844 C 431.90643 250.26868 430.47292 255.42031 426.80859 258.71289 L 403.81445 279.63672 C 404.39862 284.04453 404.7168 288.55787 404.7168 293.125 C 404.7168 297.69214 404.39862 302.20741 403.81445 306.61523 L 426.80859 327.53906 C 430.47292 330.83165 431.90643 335.98132 430.20703 340.60156 C 427.87036 346.92119 425.05588 352.97668 421.81641 358.81836 L 419.32031 363.11914 C 415.8153 368.96082 411.88558 374.48505 407.58398 379.68945 C 404.45071 383.5131 399.24757 384.78776 394.57422 383.30078 L 364.99414 373.90039 C 357.87791 379.37033 350.01773 383.93677 341.62695 387.38867 L 334.98828 417.71289 C 333.92616 422.54555 330.20804 426.36942 325.32227 427.16602 C 317.99361 428.38746 310.45234 429.02344 302.75195 429.02344 C 295.05155 429.02344 287.51029 428.38746 280.18164 427.16602 C 275.29587 426.36942 271.5797 422.54555 270.51758 417.71289 L 263.87891 387.38867 C 255.48813 383.93677 247.62795 379.37033 240.51172 373.90039 L 210.98438 383.35352 C 206.31103 384.84049 201.10788 383.51273 197.97461 379.74219 C 193.67301 374.53778 189.74329 369.01355 186.23828 363.17188 L 183.74219 358.87109 C 180.50272 353.02941 177.68823 346.97589 175.35156 340.65625 C 173.65216 336.03601 175.08567 330.88438 178.75 327.5918 L 201.74414 306.66797 C 201.15997 302.20705 200.8418 297.69214 200.8418 293.125 C 200.8418 288.55787 201.15997 284.04453 201.74414 279.63672 L 178.75 258.71289 C 175.08567 255.42031 173.65216 250.26868 175.35156 245.64844 C 177.68823 239.3288 180.50272 233.27527 183.74219 227.43359 L 186.23828 223.13086 C 189.74329 217.28918 193.67301 211.7669 197.97461 206.5625 C 201.10788 202.73885 206.31102 201.4642 210.98438 202.95117 L 240.56445 212.35156 C 247.68068 206.88162 255.54086 202.31323 263.93164 198.86133 L 270.57031 168.53906 C 271.63243 163.7064 275.35056 159.88253 280.23633 159.08594 C 287.56499 157.81139 295.10624 157.17383 302.80664 157.17383 z M 302.80664 250.64062 A 42.485352 42.485352 0 0 0 302.80664 335.61133 A 42.485352 42.485352 0 0 0 302.80664 250.64062 z "
     style="fill:#ff009d;fill-opacity:1" />
</svg>
