<?xml version="1.0" encoding="UTF-8" standalone="no"?>
<!-- Created with Inkscape (http://www.inkscape.org/) -->

<svg
   width="520"
   height="520"
   viewBox="0 0 520 520"
   version="1.1"
   id="svg5"
   sodipodi:docname="digi shop.svg"
   inkscape:version="1.4 (1:1.4+202410161351+e7c3feb100)"
   inkscape:export-filename="/home/elkana/Dev/django/digi_shop/static/logo.png"
   inkscape:export-xdpi="96"
   inkscape:export-ydpi="96"
   xmlns:inkscape="http://www.inkscape.org/namespaces/inkscape"
   xmlns:sodipodi="http://sodipodi.sourceforge.net/DTD/sodipodi-0.dtd"
   xmlns="http://www.w3.org/2000/svg"
   xmlns:svg="http://www.w3.org/2000/svg">
  <sodipodi:namedview
     id="namedview7"
     pagecolor="#ffffff"
     bordercolor="#999999"
     borderopacity="1"
     inkscape:pageshadow="0"
     inkscape:pageopacity="0"
     inkscape:pagecheckerboard="0"
     inkscape:document-units="px"
     showgrid="false"
     inkscape:object-paths="true"
     showguides="true"
     inkscape:guide-bbox="true"
     inkscape:zoom="1.0219653"
     inkscape:cx="277.89594"
     inkscape:cy="255.39029"
     inkscape:window-width="1366"
     inkscape:window-height="758"
     inkscape:window-x="0"
     inkscape:window-y="32"
     inkscape:window-maximized="0"
     inkscape:current-layer="layer2"
     inkscape:showpageshadow="2"
     inkscape:deskcolor="#d1d1d1" />
  <defs
     id="defs2" />
  <g
     inkscape:label="circle"
     inkscape:groupmode="layer"
     id="layer1"
     style="display:inline" />
  <g
     inkscape:groupmode="layer"
     id="layer2"
     inkscape:label="phone"
     style="display:inline">
    <circle
       style="display:inline;fill:#0feb00;fill-opacity:1;fill-rule:evenodd;stroke-width:4.56641"
       id="path846"
       cx="260"
       cy="260"
       r="260"
       inkscape:label="path846" />
    <g
       id="g1"
       transform="matrix(4.3974987,0,0,4.3974987,-883.34967,-3.8499231)">
      <rect
         style="fill:#ffffff;fill-opacity:1;fill-rule:evenodd;stroke-width:0.932648"
         id="rect1131"
         width="44.618977"
         height="76.673454"
         x="237.69051"
         y="21.663273"
         ry="5.7893939" />
      <path
         id="rect1452"
         style="fill:#037e00;fill-opacity:1;fill-rule:evenodd;stroke-width:0.775644"
         d="m 237.68068,90.130859 c -0.48265,5.861329 1.89802,8.289778 6.0254,8.205079 h 32.20507 c 2.93907,0.136567 7.11162,-1.870884 6.38672,-8.205079 z m 21.8086,1.521485 c 1.50061,0 2.70703,1.209349 2.70703,2.710937 0,1.501589 -1.20642,2.708985 -2.70703,2.708985 -1.50061,0 -2.70899,-1.207396 -2.70899,-2.708985 0,-1.501588 1.20838,-2.710937 2.70899,-2.710937 z" />
      <g
         aria-label="d"
         transform="matrix(0.43887428,1.0944794,-0.58368652,0.8229398,197.95866,0)"
         id="text7437"
         style="font-size:75.5473px;line-height:1.25;font-family:'Standard Symbols PS';-inkscape-font-specification:'Standard Symbols PS, Normal';fill:#0feb00;fill-opacity:1;stroke-width:1.88868">
        <path
           d="m 84.585051,-50.166446 -7.403636,-6.874804 c -3.399628,-3.172987 -4.608385,-5.212764 -4.608385,-8.008014 0,-4.608386 4.381744,-7.479183 11.407643,-7.479183 3.010897,-3.079137 1.717412,3.815582 -2.190872,3.172986 -3.021892,0 -5.439406,1.96423 -5.439406,4.457291 0,1.586494 1.510946,3.550723 4.457291,5.817143 1.435399,1.133209 2.644156,1.888682 5.363858,3.550723 4.230649,2.493061 5.666048,3.475176 7.176994,4.75948 5.439406,4.532838 8.656502,6.610754 8.656502,13.107822 0,5.137217 -2.083887,12.729355 -5.63461,16.431173 -3.62627,3.777365 -7.705825,5.5905 -12.238663,5.5905 -8.687939,0 -15.864933,-7.479183 -15.864933,-16.469312 0,-5.666047 2.870797,-10.954358 7.856919,-14.353987 2.190872,-1.510946 4.532838,-2.493061 8.461298,-3.701818 z m 2.115325,1.96423 c -6.874805,1.510946 -10.274434,6.270426 -10.274434,14.429535 0,8.68794 3.626271,14.580629 8.914582,14.580629 5.288311,0 8.839034,-4.986122 8.839034,-12.465305 0,-4.230649 -1.133209,-8.234656 -3.248534,-11.558737 -0.83102,-1.284304 -1.737587,-2.493061 -2.79525,-3.626271 l -0.83102,-0.83102 c -0.453284,-0.377736 -0.528831,-0.528831 -0.604378,-0.528831 z"
           id="path8132"
           sodipodi:nodetypes="ccsccscccscsscccssscccc"
           style="fill:#0feb00;fill-opacity:1" />
      </g>
    </g>
  </g>
</svg>
