<?xml version="1.0" encoding="UTF-8" standalone="no"?>
<!-- Created with Inkscape (http://www.inkscape.org/) -->

<svg
   width="520"
   height="520"
   viewBox="0 0 137.58333 137.58333"
   version="1.1"
   id="svg1"
   xml:space="preserve"
   inkscape:version="1.3.2 (1:1.3.2+202404261509+091e20ef0f)"
   sodipodi:docname="logo520*520.svg"
   inkscape:export-filename="logo520*520.png"
   inkscape:export-xdpi="96"
   inkscape:export-ydpi="96"
   xmlns:inkscape="http://www.inkscape.org/namespaces/inkscape"
   xmlns:sodipodi="http://sodipodi.sourceforge.net/DTD/sodipodi-0.dtd"
   xmlns:xlink="http://www.w3.org/1999/xlink"
   xmlns="http://www.w3.org/2000/svg"
   xmlns:svg="http://www.w3.org/2000/svg"><sodipodi:namedview
     id="namedview1"
     pagecolor="#ffffff"
     bordercolor="#000000"
     borderopacity="0.25"
     inkscape:showpageshadow="2"
     inkscape:pageopacity="0.0"
     inkscape:pagecheckerboard="0"
     inkscape:deskcolor="#d1d1d1"
     inkscape:document-units="mm"
     inkscape:zoom="0.7645462"
     inkscape:cx="302.14001"
     inkscape:cy="262.90105"
     inkscape:window-width="1366"
     inkscape:window-height="699"
     inkscape:window-x="0"
     inkscape:window-y="32"
     inkscape:window-maximized="1"
     inkscape:current-layer="layer1" /><defs
     id="defs1"><linearGradient
       id="linearGradient8"
       inkscape:collect="always"><stop
         style="stop-color:#0b6477;stop-opacity:1;"
         offset="0"
         id="stop8" /><stop
         style="stop-color:#80ed99;stop-opacity:1;"
         offset="1"
         id="stop9" /></linearGradient><linearGradient
       inkscape:collect="always"
       xlink:href="#linearGradient8"
       id="linearGradient9"
       x1="-2.15e-07"
       y1="6.3499999"
       x2="12.7"
       y2="6.3499999"
       gradientUnits="userSpaceOnUse"
       gradientTransform="matrix(10.833333,0,0,10.833333,6.6593422e-6,5.6593422e-6)" /></defs><g
     inkscape:label="Layer 1"
     inkscape:groupmode="layer"
     id="layer1"><path
       id="path1"
       style="font-variation-settings:normal;opacity:1;vector-effect:none;fill:url(#linearGradient9);fill-opacity:1;stroke:#ff0062;stroke-width:0;stroke-linecap:butt;stroke-linejoin:miter;stroke-miterlimit:4;stroke-dasharray:none;stroke-dashoffset:0;stroke-opacity:1;-inkscape-stroke:none;stop-color:#000000;stop-opacity:1"
       d="M 80.880377,18.647743 113.32548,68.852778 78.082767,118.93558 137.58333,67.970847 Z M 57.474615,19.702476 1.6666667e-6,67.970858 59.500578,118.93559 24.257849,68.852789 Z m 19.130388,11.613463 c -1.29037,0.0084 -2.650495,0.113099 -4.081698,0.324784 -6.300178,0.931667 -16.631104,4.037897 -25.247006,20.080796 -10.570527,19.68253 1.078567,36.604283 1.078567,36.604283 l -5.532659,2.702245 5.848461,7.114727 8.830792,-3.914874 c 0,0 4.240892,3.678273 10.934212,6.14342 4.960475,1.82694 15.668391,2.64562 15.668391,2.64562 0,0 2.618676,-4.541615 7.85058,-11.101026 -17.245344,-0.4446 -21.364903,-5.872272 -21.364903,-5.872272 0,0 8.673394,-5.188496 15.590932,-12.927395 6.872785,-7.68885 9.861508,-14.030489 9.27173,-25.047393 C 95.026435,40.111967 89.07874,31.230973 76.605036,31.315939 Z m 1.653545,12.248112 c 1.02245,0.04658 2.033081,0.315684 2.994247,0.866992 3.99126,2.289365 7.041732,10.011039 -3.548405,21.933957 -4.844882,5.454594 -15.528369,12.006767 -15.528369,12.006767 0,0 -5.182504,-9.044023 -0.652492,-19.279335 3.16082,-7.14181 4.633851,-8.340421 8.062123,-11.547954 2.412767,-2.257385 5.605428,-4.120761 8.672896,-3.980427 z m -49.811729,52.21906 -2.022974,6.769099 9.355146,-0.30994 z m 40.516166,8.881389 a 7.1022575,7.1022575 0 0 0 -7.102766,7.10279 7.1022575,7.1022575 0 0 0 7.102766,7.10281 7.1022575,7.1022575 0 0 0 7.102756,-7.10281 7.1022575,7.1022575 0 0 0 -7.102756,-7.10279 z" /></g></svg>
