<?xml version="1.0" encoding="UTF-8" standalone="no"?>
<svg
   viewBox="0 0 512 512"
   version="1.1"
   id="svg1"
   sodipodi:docname="python-pink.svg"
   width="512"
   height="512"
   inkscape:version="1.4 (e7c3feb100, 2024-10-09)"
   xmlns:inkscape="http://www.inkscape.org/namespaces/inkscape"
   xmlns:sodipodi="http://sodipodi.sourceforge.net/DTD/sodipodi-0.dtd"
   xmlns="http://www.w3.org/2000/svg"
   xmlns:svg="http://www.w3.org/2000/svg">
  <defs
     id="defs1" />
  <sodipodi:namedview
     id="namedview1"
     pagecolor="#ffffff"
     bordercolor="#000000"
     borderopacity="0.25"
     inkscape:showpageshadow="2"
     inkscape:pageopacity="0.0"
     inkscape:pagecheckerboard="0"
     inkscape:deskcolor="#d1d1d1"
     inkscape:zoom="0.81762654"
     inkscape:cx="187.73852"
     inkscape:cy="259.28708"
     inkscape:window-width="1366"
     inkscape:window-height="758"
     inkscape:window-x="0"
     inkscape:window-y="32"
     inkscape:window-maximized="0"
     inkscape:current-layer="svg1" />
  <!--!Font Awesome Free 6.7.1 by @fontawesome - https://fontawesome.com License - https://fontawesome.com/license/free Copyright 2024 Fonticons, Inc.-->
  <path
     d="m 500.07056,193.22025 c -8.70898,-34.94905 -25.22213,-61.30222 -60.39738,-61.30222 h -45.35459 v 53.61116 c 0,41.62217 -35.28836,76.68432 -75.55328,76.68432 H 197.97055 c -33.02629,0 -60.39739,28.27593 -60.39739,61.41532 v 115.13958 c 0,32.80007 28.50214,52.0277 60.39739,61.41531 38.22905,11.19727 74.98776,13.23314 120.79476,0 30.4249,-8.82209 60.39738,-26.57937 60.39738,-61.41531 V 392.7352 H 258.48103 v -15.38211 h 181.19215 c 35.17525,0 48.18218,-24.54351 60.39738,-61.30221 12.66762,-37.88975 12.1021,-74.30914 0,-122.83063 z M 326.34326,423.3863 c 12.55451,0 22.73385,10.29244 22.73385,22.96005 0,12.78072 -10.17934,23.07316 -22.73385,23.07316 -12.44141,0 -22.73385,-10.40554 -22.73385,-23.07316 0.11311,-12.78071 10.29244,-22.96005 22.73385,-22.96005 z M 192.42846,247.05761 h 120.79477 c 33.5918,0 60.39738,-27.71041 60.39738,-61.41531 V 70.389613 c 0,-32.800077 -27.5973,-57.343582 -60.39738,-62.8856641 C 272.7321,0.83082983 228.73476,1.170141 192.42846,7.6170526 141.30559,16.66535 132.03108,35.55367 132.03108,70.502717 v 46.033213 h 120.90787 v 15.3821 H 86.676492 c -35.175254,0 -65.939464,21.1504 -75.55328,61.30222 -11.08416356,46.03321 -11.53657841,74.76155 0,122.83063 8.595882,35.74077 29.067654,61.30221 64.242909,61.30221 h 41.509059 v -55.19461 c 0,-39.92561 34.49664,-75.10087 75.55328,-75.10087 z M 184.85051,85.771719 c -12.55451,0 -22.73384,-10.292439 -22.73384,-22.960055 0.1131,-12.780719 10.17933,-23.073157 22.73384,-23.073157 12.44141,0 22.73385,10.405542 22.73385,23.073157 0,12.667616 -10.17933,22.960055 -22.73385,22.960055 z"
     id="path1"
     style="fill:#e2007b;fill-opacity:1;stroke-width:1.13104" />
</svg>
