<?xml version="1.0" encoding="UTF-8" standalone="no"?>
<!-- Created with Inkscape (http://www.inkscape.org/) -->

<svg
   width="520"
   height="520"
   viewBox="0 0 137.58333 137.58333"
   version="1.1"
   id="svg1"
   sodipodi:docname="yummy point.svg"
   inkscape:version="1.4 (1:1.4+202410161351+e7c3feb100)"
   xmlns:inkscape="http://www.inkscape.org/namespaces/inkscape"
   xmlns:sodipodi="http://sodipodi.sourceforge.net/DTD/sodipodi-0.dtd"
   xmlns="http://www.w3.org/2000/svg"
   xmlns:svg="http://www.w3.org/2000/svg">
  <sodipodi:namedview
     id="namedview1"
     pagecolor="#ffffff"
     bordercolor="#000000"
     borderopacity="0.25"
     inkscape:showpageshadow="2"
     inkscape:pageopacity="0.0"
     inkscape:pagecheckerboard="0"
     inkscape:deskcolor="#d1d1d1"
     inkscape:document-units="mm"
     inkscape:zoom="0.75827969"
     inkscape:cx="209.68516"
     inkscape:cy="245.29208"
     inkscape:window-width="1366"
     inkscape:window-height="758"
     inkscape:window-x="0"
     inkscape:window-y="32"
     inkscape:window-maximized="1"
     inkscape:current-layer="layer1" />
  <defs
     id="defs1" />
  <g
     inkscape:label="Layer 1"
     inkscape:groupmode="layer"
     id="layer1">
    <path
       id="path1"
       style="fill:#f7e300;fill-opacity:1;stroke-width:0.264583"
       d="M 68.792039,3.7601341e-4 A 68.791412,68.791412 0 0 0 2.8156946e-6,68.791672 68.791412,68.791412 0 0 0 68.792039,137.58296 68.791412,68.791412 0 0 0 137.58334,68.791672 68.791412,68.791412 0 0 0 68.792039,3.7601341e-4 Z M 108.99525,28.247271 c 0.95614,-0.05744 1.61792,0.121057 1.9009,0.54649 0,0 0.45166,0.429139 0.4756,0.71413 0.0855,1.022115 -1.25545,2.809255 -1.25545,2.809255 L 94.53468,47.8995 c -1.075503,1.075498 -1.075503,2.807534 0,3.883035 1.075502,1.075499 2.808288,1.075499 3.883774,0 L 114.04808,36.152916 c 0,0 2.01505,-1.361198 3.08323,-1.124736 0.55057,0.121858 1.09156,0.444093 1.52353,0.873645 0.43196,0.429542 0.75472,0.966838 0.86847,1.519097 0.21329,1.034229 -1.17126,2.943661 -1.17126,2.943661 l -15.6754,15.675406 c -1.07551,1.0755 -1.07551,2.808272 0,3.883773 1.07548,1.075499 2.80679,1.0755 3.8823,0 l 16.00108,-16.000346 c 0,0 1.53094,-1.232881 2.39052,-1.075256 0.42282,0.07755 0.91206,0.911309 0.91206,0.911309 1.92693,1.926944 -1.96478,14.328747 -12.08409,24.448051 -6.60151,6.601529 -15.976179,4.372213 -21.713383,2.024966 l -46.51887,46.518134 c -4.181827,4.18183 -6.450186,3.27365 -8.422595,1.30123 -1.972406,-1.97241 -2.87985,-4.24076 1.301977,-8.42259 L 84.783522,63.271384 C 82.514655,57.750887 80.156744,48.210484 86.968746,41.398483 95.19067,33.176549 104.85199,28.49614 108.99525,28.247271 Z m -79.176084,4.287732 c 0.170976,-0.01058 0.348574,-0.0083 0.531719,0.0052 3.174552,0.232796 7.999436,3.854233 7.999436,3.854233 L 72.362688,70.407488 58.961863,83.807573 37.30682,62.152532 c 0,0 -11.017441,-7.245435 -9.657367,-27.116252 0.06787,-0.991602 0.375008,-1.640901 0.84632,-2.029399 0.357901,-0.295014 0.810467,-0.440306 1.323393,-0.471902 z" />
  </g>
  <g
     inkscape:groupmode="layer"
     id="layer2"
     inkscape:label="fork" />
</svg>
